<svg xmlns="http://www.w3.org/2000/svg" width="120" height="120" viewBox="-10 -10 120 120" fill="none" data-icon-system="passaporte-serra-negra-v2"><title>Comparar versoes</title><g id="psn-admin-comparar-versoes-a-028" stroke="currentColor" stroke-width="4" stroke-linecap="round" stroke-linejoin="round"><g transform="translate(8 7) scale(0.8)" stroke-width="5"><path d="M42 37V28L25 11H-2Q-6 11 -6 16V80Q-6 85 -1 85H37Q42 85 42 80V73 M25 11V28H42 M62 36V16Q62 11 67 11H94L111 28V80Q111 85 106 85H67Q62 85 62 80V73 M94 11V28H111 M23 55H83 M23 55L34 44 M23 55L34 66 M83 55L72 44 M83 55L72 66"/></g></g></svg>
